<svg id="Layer_1" enable-background="new 0 0 128 128" height="512" viewBox="0 0 128 128" width="512" xmlns="http://www.w3.org/2000/svg" xmlns:xlink="http://www.w3.org/1999/xlink"><linearGradient id="SVGID_1_" gradientTransform="matrix(1 0 0 -1 0 127.89)" gradientUnits="userSpaceOnUse" x1="97.059" x2="30.935" y1="30.648" y2="96.773"><stop offset="0" stop-color="#fc68c0"/><stop offset=".965" stop-color="#3edbff"/></linearGradient><path d="m108.6 78.2c-.3.9-1.2 1.5-2.2 1.2s-1.5-1.3-1.2-2.2c.1-.4.3-.9.4-1.3.2-.9 1.2-1.5 2.1-1.3s1.5 1.2 1.3 2.1c0 .1-.2.8-.4 1.5zm2.1-14c0 1-.8 1.8-1.8 1.8s-1.8-.8-1.8-1.8c0-23.9-19.3-43.3-43.2-43.3s-43.3 19.3-43.3 43.2c0 12.6 5.5 24.7 15.1 32.9v-.3c0-11.6 7.7-21.9 18.8-25.2-6.5-3.7-10.1-10.9-9.5-18.1.9-10.5 10.1-18.3 20.6-17.4 9.3.8 16.7 8.2 17.4 17.5.6 7.1-3.1 14.4-9.7 18.1 11.2 3.3 18.8 13.6 18.8 25.2v.2c2.9-2.5 5.5-5.4 7.7-8.6.5-.8 1.6-1 2.4-.5s1 1.6.5 2.4c-8.5 12.7-22.8 20.6-38.7 20.6-25.5 0-46.8-20.7-46.8-46.9.1-25.4 20.7-46.6 46.8-46.6 25.8 0 46.8 20.9 46.7 46.8zm-46.6 6.2c9.2 0 16.1-7.9 15.4-16.7-.7-8.6-8.2-14.9-16.8-14.2-7.6.6-13.6 6.6-14.2 14.2-.7 8.9 6.3 16.7 15.4 16.7zm-24.7 29.3c14.8 10.3 34.4 10.3 49.2 0v-3c0-12.6-10.2-22.8-22.8-22.8-.3 0-3.8 0-3.7 0-12.6 0-22.8 10.2-22.8 22.8z" fill="url(#SVGID_1_)"/></svg>